<svg width="130" height="130" viewBox="0 0 130 130" fill="none" xmlns="http://www.w3.org/2000/svg">
<path d="M115.44 32.495L124.91 23.0251L106.975 5.09008L97.505 14.5601C87.8202 8.30194 76.5308 4.9816 65 5.00008C31.865 5.00008 5 31.865 5 65C5 76.98 8.51 88.135 14.56 97.505L5.09 106.975L23.025 124.91L32.495 115.44C42.1797 121.698 53.4692 125.018 65 125C98.135 125 125 98.135 125 65C125 53.02 121.49 41.865 115.44 32.495ZM27.845 65C27.8443 58.7497 29.4204 52.6003 32.4274 47.1208C35.4344 41.6414 39.7751 37.0091 45.0478 33.6527C50.3204 30.2963 56.3546 28.3243 62.5918 27.9191C68.8289 27.514 75.0675 28.6889 80.73 31.335L31.33 80.735C29.0277 75.8093 27.8379 70.4372 27.845 65ZM65 102.155C59.5637 102.163 54.1926 100.972 49.27 98.665L98.67 49.265C101.315 54.9284 102.488 61.1672 102.082 67.4044C101.676 73.6416 99.7035 79.6757 96.3469 84.9483C92.9903 90.221 88.3581 94.5619 82.8789 97.5695C77.3997 100.577 71.2504 102.154 65 102.155Z" fill="#F7F7F7"/>
<rect x="60" y="95" width="70" height="35" rx="10" fill="#0086AD"/>
<path d="M75.9 106.02H82.06C83.6867 106.02 84.9867 106.447 85.96 107.3C86.9333 108.153 87.42 109.347 87.42 110.88C87.42 112.453 86.9333 113.673 85.96 114.54C85 115.393 83.7 115.82 82.06 115.82H79.44V120H75.9V106.02ZM81.5 112.84C82.2067 112.84 82.76 112.693 83.16 112.4C83.5733 112.107 83.78 111.6 83.78 110.88C83.78 110.16 83.58 109.667 83.18 109.4C82.78 109.133 82.22 109 81.5 109H79.44V112.84H81.5ZM94.8748 120.3C92.7682 120.3 91.1815 119.74 90.1148 118.62C89.0482 117.487 88.5148 115.993 88.5148 114.14V106.02H92.0548V114.18C92.0548 115.113 92.3015 115.82 92.7948 116.3C93.3015 116.78 93.9948 117.02 94.8748 117.02C95.7548 117.02 96.4415 116.78 96.9348 116.3C97.4282 115.82 97.6748 115.113 97.6748 114.18V106.02H101.215V114.14C101.215 116.007 100.682 117.5 99.6148 118.62C98.5615 119.74 96.9815 120.3 94.8748 120.3ZM102.912 106.02H109.992C111.338 106.02 112.398 106.353 113.172 107.02C113.958 107.687 114.352 108.64 114.352 109.88C114.352 110.467 114.218 111.013 113.952 111.52C113.685 112.027 113.305 112.427 112.812 112.72C113.492 112.987 113.992 113.373 114.312 113.88C114.632 114.373 114.792 115.02 114.792 115.82C114.792 116.673 114.592 117.42 114.192 118.06C113.792 118.687 113.252 119.167 112.572 119.5C111.905 119.833 111.158 120 110.332 120H102.912V106.02ZM109.212 111.56C110.252 111.56 110.772 111.073 110.772 110.1C110.772 109.553 110.638 109.18 110.372 108.98C110.105 108.767 109.698 108.66 109.152 108.66H106.452V111.56H109.212ZM109.432 117.36C110.032 117.36 110.478 117.247 110.772 117.02C111.065 116.793 111.212 116.393 111.212 115.82C111.212 115.247 111.058 114.833 110.752 114.58C110.445 114.313 109.978 114.18 109.352 114.18H106.452V117.36H109.432Z" fill="#F7F7F7"/>
</svg>
